<svg xmlns="http://www.w3.org/2000/svg" xmlns:xlink="http://www.w3.org/1999/xlink" fill="none" version="1.1" width="48" height="48" viewBox="0 0 48 48"><defs><linearGradient x1="0" y1="0.5" x2="1" y2="0.5" id="master_svg0_4_27030"><stop offset="0%" stop-color="#6BABE8" stop-opacity="1"/><stop offset="100%" stop-color="#A06DE8" stop-opacity="1"/></linearGradient></defs><g><rect x="0" y="0" width="48" height="48" rx="24" fill="#111729" fill-opacity="1"/><rect x="1" y="1" width="46" height="46" rx="23" stroke="url(#master_svg0_4_27030)" fill-opacity="0" fill="none" stroke-width="2"/><g><path d="M10.7901173,31.815468Q10.056289,31.279688,9.4322655,30.614179999999998Q8.8083594,29.948672000000002,8.3503906,29.131406Q7.8924218,28.314140000000002,7.6390625,27.322383000000002Q7.38582027,26.330508000000002,7.38582027,25.144102Q7.38582027,23.9501953,7.6390625,22.9584374Q7.8924218,21.9665623,8.3503906,21.149296800000002Q8.8083594,20.3320312,9.4322655,19.6693363Q10.056289,19.0065241,10.7901173,18.4727345L11.669843700000001,18.890625Q10.8783593,19.5295315,10.1915233,20.3934374Q9.5046875,21.2572269,9.0792968,22.4272265Q8.6540234,23.5971088,8.6540234,25.144102Q8.6540234,26.685586,9.0792968,27.855586000000002Q9.5046875,29.025586,10.1915233,29.892187Q10.8783593,30.758672,11.669843700000001,31.397577L10.7901173,31.815468ZM19.702382999999998,24.3158207Q19.106836,23.4317579,18.504725999999998,22.5481644Q17.902735,21.6645708,17.305079,20.788125L17.174063,20.788125Q16.578516,21.6529694,15.9771099,22.5264845Q15.3757038,23.3998833,14.780859,24.2667189L13.5813284,24.2667189Q14.301914199999999,23.1248436,15.0223827,21.9910545Q15.7429686,20.8571482,16.4635544,19.7153912L18.015586,19.7153912Q18.736172,20.8566799,19.460274,22.0060549Q20.184375,23.1553125,20.897813,24.2967186L19.702382999999998,24.3158207ZM22.052500000000002,31.812656L22.052500000000002,30.776836Q22.75832,30.776836,23.41785,30.776836Q24.077383,30.776836,24.649609,30.776836L25.783867,30.776836Q26.361485,30.776836,27.019257,30.776836Q27.677147,30.776836,28.380976,30.776836L28.380976,31.812656Q27.677147,31.812656,27.019257,31.812656Q26.361485,31.812656,25.783867,31.812656L24.649609,31.812656Q24.077383,31.812656,23.41785,31.812656Q22.75832,31.812656,22.052500000000002,31.812656ZM29.559334,26.091445999999998L29.559334,24.9846096Q30.173748,24.9846096,30.742107,24.9846096Q31.310583,24.9846096,31.803005,24.9846096Q32.300467,24.9846096,32.870115,24.9846096Q33.439762,24.9846096,34.046677,24.9846096L34.046677,26.091445999999998Q33.439762,26.091445999999998,32.870115,26.091445999999998Q32.300467,26.091445999999998,31.803005,26.091445999999998Q31.310583,26.091445999999998,30.742107,26.091445999999998Q30.173748,26.091445999999998,29.559334,26.091445999999998ZM36.855934000000005,31.815468L35.976326,31.397577Q36.767809,30.758672,37.45734,29.892187Q38.146872,29.025586,38.56945,27.858398Q38.992146,26.691093000000002,38.992146,25.144102Q38.992146,23.6026173,38.56945,22.4326172Q38.146872,21.2626171,37.45734,20.3961334Q36.767809,19.5295315,35.976326,18.890625L36.855934000000005,18.4727345Q37.595154,19.0065241,38.216482,19.6730862Q38.837811,20.3395319,39.295662,21.156797400000002Q39.753632,21.9740629,40.006989,22.9659376Q40.260349,23.957695,40.260349,25.144102Q40.260349,26.338008000000002,40.006989,27.329883000000002Q39.753632,28.321641,39.295662,29.138906Q38.837811,29.956172000000002,38.216482,30.617929Q37.595154,31.279688,36.855934000000005,31.815468Z" fill="#FFFFFF" fill-opacity="1"/></g></g></svg>