<svg xmlns="http://www.w3.org/2000/svg" xmlns:xlink="http://www.w3.org/1999/xlink" fill="none" version="1.1" width="48" height="48" viewBox="0 0 48 48"><defs><linearGradient x1="0" y1="0.5" x2="1" y2="0.5" id="master_svg0_4_27030"><stop offset="0%" stop-color="#6BABE8" stop-opacity="1"/><stop offset="100%" stop-color="#A06DE8" stop-opacity="1"/></linearGradient><linearGradient x1="47" y1="25.5" x2="1" y2="25.5" gradientUnits="userSpaceOnUse" id="master_svg1_4_28052"><stop offset="0%" stop-color="#9E6FE8" stop-opacity="1"/><stop offset="100%" stop-color="#6DA9E8" stop-opacity="1"/></linearGradient></defs><g><g><path d="M46,7.5L2,7.5L2,8.5L46,8.5L46,7.5ZM46,39.5L2,39.5L2,40.5L46,40.5L46,39.5Z" fill-rule="evenodd" fill="url(#master_svg0_4_27030)" fill-opacity="1"/><g><path d="M2.2451172,25.1621094Q2.2451172,24.3173828,2.4892578,23.53125Q2.7333984,22.7451172,3.1679688,22.0419922Q3.6025391,21.3388672,4.2055664,20.730957Q4.808593800000001,20.1230469,5.5214844,19.625L6.1904297,20.6552734Q5.5898438,21.1289062,5.1015625,21.6391602Q4.613281199999999,22.1494141,4.269043,22.7109375Q3.9248047,23.2724609,3.7368164,23.8828125Q3.5488281,24.4931641,3.5488281,25.1621094Q3.5488281,25.8310547,3.6928711,26.4316406Q3.8369141,27.0322266,4.1298828,27.5791016Q4.4228515999999996,28.1259766,4.8671875,28.6264648Q5.3115234,29.126953,5.9121094,29.600586L5.2431641,30.630859Q4.5302734000000004,30.132812,3.9711914,29.534668Q3.4121094,28.9365234,3.0288086,28.2456055Q2.6455078,27.5546875,2.4453125,26.7807617Q2.2451172,26.0068359,2.2451172,25.1621094ZM8.1972656,23.8876953L9.2373047,22.4570312L7.5576172,21.9052734L7.8994141,20.8457031L9.5839844,21.3974609L9.5742188,19.625L10.7021484,19.625L10.6923828,21.3974609L12.381836,20.8505859L12.728516,21.9101562L11.048828,22.4570312L12.074219,23.8876953L11.175781,24.5419922L10.140625,23.1064453L9.0957031,24.5371094L8.1972656,23.8876953ZM17.621094,22.0859375L20.658203,26.7197266L19.579102,27.4326172L17.621094,24.4199219L15.663086,27.4326172L14.583984,26.7197266L17.621094,22.0859375ZM22.699219,28.1552734Q22.699219,27.9599609,22.779785,27.786621099999998Q22.860352,27.6132812,23.011719,27.4838867Q23.163086,27.3544922,23.37793,27.28125Q23.592773,27.2080078,23.861328,27.2080078Q24.129883,27.2080078,24.344727,27.28125Q24.55957,27.3544922,24.708496,27.4838867Q24.857422,27.6132812,24.937988,27.786621099999998Q25.018555,27.9599609,25.018555,28.1552734Q25.018555,28.3505859,24.937988,28.5239258Q24.857422,28.6972656,24.708496,28.8242188Q24.55957,28.9511719,24.344727,29.026854999999998Q24.129883,29.102539,23.861328,29.102539Q23.592773,29.102539,23.37793,29.026854999999998Q23.163086,28.9511719,23.011719,28.8242188Q22.860352,28.6972656,22.779785,28.5239258Q22.699219,28.3505859,22.699219,28.1552734ZM30.101562,22.0859375L33.138672,26.7197266L32.05957,27.4326172L30.101562,24.4199219L28.143555,27.4326172L27.064453,26.7197266L30.101562,22.0859375ZM35.633789,23.8876953L36.673828,22.4570312L34.994141,21.9052734L35.335938,20.8457031L37.020508,21.3974609L37.010742,19.625L38.138672,19.625L38.128906,21.3974609L39.818359,20.8505859L40.165039,21.9101562L38.485352,22.4570312L39.510742,23.8876953L38.612305,24.5419922L37.577148,23.1064453L36.532227,24.5371094L35.633789,23.8876953ZM45.477615,25.1621094Q45.477615,24.3173828,45.233475,23.53125Q44.989334,22.7451172,44.554764,22.0419922Q44.12027,21.3388672,43.517242,20.730957Q42.914291,20.1230469,42.201477,19.625L41.532532,20.6552734Q42.133118,21.1289062,42.621323,21.6391602Q43.109604,22.1494141,43.453766,22.7109375Q43.798004,23.2724609,43.985992,23.8828125Q44.173981,24.4931641,44.173981,25.1621094Q44.173981,25.8310547,44.029938,26.4316406Q43.885895,27.0322266,43.592926,27.5791016Q43.300034,28.1259766,42.855698,28.6264648Q42.411362,29.126953,41.810852,29.600586L42.479721,30.630859Q43.192612,30.132812,43.751617,29.534668Q44.310699,28.9365234,44.693924,28.2456055Q45.077225,27.5546875,45.27742,26.7807617Q45.477615,26.0068359,45.477615,25.1621094Z" fill="url(#master_svg1_4_28052)" fill-opacity="1"/></g></g></g></svg>