<svg xmlns="http://www.w3.org/2000/svg" xmlns:xlink="http://www.w3.org/1999/xlink" fill="none" version="1.1" width="48" height="48" viewBox="0 0 48 48"><defs><linearGradient x1="43.5" y1="12" x2="4.5" y2="12" gradientUnits="userSpaceOnUse" id="master_svg0_4_30587"><stop offset="0%" stop-color="#C652E7" stop-opacity="1"/><stop offset="100%" stop-color="#6CCFEA" stop-opacity="1"/><stop offset="100%" stop-color="#6ACCEA" stop-opacity="0"/></linearGradient><linearGradient x1="1" y1="0.5" x2="0" y2="0.5" id="master_svg1_4_30587"><stop offset="0%" stop-color="#C652E7" stop-opacity="1"/><stop offset="100%" stop-color="#6CCFEA" stop-opacity="1"/><stop offset="100%" stop-color="#6ACCEA" stop-opacity="0"/></linearGradient><linearGradient x1="47.5" y1="36" x2="0.5" y2="36" gradientUnits="userSpaceOnUse" id="master_svg2_4_30587"><stop offset="0%" stop-color="#C652E7" stop-opacity="1"/><stop offset="100%" stop-color="#6CCFEA" stop-opacity="1"/><stop offset="100%" stop-color="#6ACCEA" stop-opacity="0"/></linearGradient></defs><g><g><path d="M4.86132812,13.1582031Q4.86132812,12.342773399999999,4.99316406,11.5395508Q5.125,10.7363281,5.42529297,10.0014648Q5.7255859000000004,9.266601600000001,6.2285156,8.6611328L7.8203125,8.6611328Q7.1464844,9.5986328,6.84375,10.7827148Q6.5410156,11.9667969,6.5410156,13.1484375Q6.5410156,13.9248047,6.6728515999999996,14.7133789Q6.8046875,15.501953,7.085449199999999,16.236815999999997Q7.3662109000000004,16.97168,7.8105469,17.582031L6.2285156,17.582031Q5.7255859000000004,16.996094,5.42529297,16.273438Q5.125,15.550781,4.99316406,14.7573242Q4.86132812,13.9638672,4.86132812,13.1582031ZM11.916601700000001,8.4023438L11.731054799999999,10.1210938L13.4693356,9.6279297L13.6499996,11.0683594L12.116797,11.170898399999999L13.1275387,12.5283203L11.8580079,13.2021484L11.159765700000001,11.8203125L10.559179799999999,13.1923828L9.231054799999999,12.5283203L10.236914200000001,11.170898399999999L8.7085938,11.0488281L8.9283204,9.6279297L10.627539200000001,10.1210938L10.4371095,8.4023438L11.916601700000001,8.4023438ZM16.369335,12.3378906Q15.846874,12.3378906,15.439159,12.1132812Q15.031445,11.8886719,14.799511,11.4882812Q14.567577,11.0878906,14.567577,10.5605469Q14.567577,10.038085899999999,14.799511,9.6328125Q15.031445,9.227539100000001,15.439159,8.9931641Q15.846874,8.7587891,16.369335,8.7587891Q16.896679,8.7587891,17.301952,8.9931641Q17.707226,9.227539100000001,17.939159,9.6328125Q18.171093,10.038085899999999,18.171093,10.5605469Q18.171093,11.0878906,17.939159,11.4882812Q17.707226,11.8886719,17.301952,12.1132812Q16.896679,12.3378906,16.369335,12.3378906ZM16.369335,11.180664100000001Q16.662304,11.180664100000001,16.835644000000002,11.0097656Q17.008983999999998,10.8388672,17.008983999999998,10.5605469Q17.008983999999998,10.2675781,16.835644000000002,10.0893555Q16.662304,9.9111328,16.369335,9.9111328Q16.076366,9.9111328,15.903027,10.0893555Q15.729687,10.2675781,15.729687,10.5605469Q15.729687,10.8388672,15.903027,11.0097656Q16.076366,11.180664100000001,16.369335,11.180664100000001ZM28.578709,8.52L23.87871,16.66L19.178710000000002,8.52L28.578709,8.52ZM19.974648000000002,8.9801564L23.87871,15.739532L27.782772,8.9801564L19.974648000000002,8.9801564ZM31.388084,12.3378906Q30.865623,12.3378906,30.457909,12.1132812Q30.050194,11.8886719,29.81826,11.4882812Q29.586327,11.0878906,29.586327,10.5605469Q29.586327,10.038085899999999,29.81826,9.6328125Q30.050194,9.227539100000001,30.457909,8.9931641Q30.865623,8.7587891,31.388084,8.7587891Q31.915428,8.7587891,32.320702,8.9931641Q32.725975,9.227539100000001,32.957909,9.6328125Q33.189842,10.038085899999999,33.189842,10.5605469Q33.189842,11.0878906,32.957909,11.4882812Q32.725975,11.8886719,32.320702,12.1132812Q31.915428,12.3378906,31.388084,12.3378906ZM31.388084,11.180664100000001Q31.681053,11.180664100000001,31.854393,11.0097656Q32.027733,10.8388672,32.027733,10.5605469Q32.027733,10.2675781,31.854393,10.0893555Q31.681053,9.9111328,31.388084,9.9111328Q31.095116,9.9111328,30.921776,10.0893555Q30.748436,10.2675781,30.748436,10.5605469Q30.748436,10.8388672,30.921776,11.0097656Q31.095116,11.180664100000001,31.388084,11.180664100000001ZM37.325195,8.4023438L37.139648,10.1210938L38.87793,9.6279297L39.058594,11.0683594L37.525391,11.170898399999999L38.536133,12.5283203L37.266602,13.2021484L36.568359,11.8203125L35.967772,13.1923828L34.639647,12.5283203L35.645506,11.170898399999999L34.117186000000004,11.0488281L34.336912,9.6279297L36.036131,10.1210938L35.845701,8.4023438L37.325195,8.4023438ZM42.900978,13.1582031Q42.900978,13.9638672,42.769142,14.7573242Q42.637306,15.550781,42.337013,16.273438Q42.03672,16.996094,41.528908,17.582031L39.946877,17.582031Q40.396095,16.97168,40.674416,16.236815999999997Q40.952736,15.501953,41.084572,14.7133789Q41.216408,13.9248047,41.216408,13.1484375Q41.216408,12.3574219,41.084572,11.5639648Q40.952736,10.7705078,40.671974,10.0283203Q40.391212,9.2861328,39.937111,8.6611328L41.528908,8.6611328Q42.03672,9.266601600000001,42.337013,10.0014648Q42.637306,10.7363281,42.769142,11.5395508Q42.900978,12.342773399999999,42.900978,13.1582031Z" fill="url(#master_svg0_4_30587)" fill-opacity="1"/></g><g><rect x="7.5" y="23" width="33" height="2" rx="1" fill="url(#master_svg1_4_30587)" fill-opacity="1"/></g><g><path d="M4.0799999,40Q3.96,39.519999999999996,3.885,39.05Q3.8099999,38.579999900000004,3.76,38.1149998Q3.71,37.6499996,3.6699998,37.1800003Q3.6299999,36.71,3.5899999,36.230000000000004Q3.5699999,35.9100003,3.5349998,35.6500001Q3.5,35.3899999,3.4399998,35.1900001Q3.3799999,34.9900002,3.29,34.8499999Q3.2,34.71,3.075,34.6400003Q2.95,34.5700002,2.78,34.5700002Q2.5999999,34.5700002,2.4549999,34.6500001Q2.3099999,34.730000000000004,2.23,34.880000100000004Q2.15,35.0300002,2.15,35.2400002Q2.15,35.4500003,2.24,35.6100001Q2.3299999,35.769999999999996,2.51,35.855000000000004Q2.6900001,35.9400001,2.95,35.9400001Q3.1699998,35.9400001,3.4549999,35.880000100000004Q3.74,35.8200002,4.04,35.6900001L4.24,37Q3.8699999,37.1599998,3.51,37.2399998Q3.1499999,37.3199997,2.79,37.3199997Q2.1799999000000003,37.3199997,1.72,37.1100006Q1.2599999899999998,36.9000001,1.005,36.480000000000004Q0.75,36.0600004,0.75,35.4500003Q0.75,34.8299999,1.02499998,34.3150001Q1.2999999500000001,33.8000002,1.795,33.4950004Q2.29,33.1900001,2.9400001,33.1900001Q3.52,33.1900001,3.905,33.415Q4.29,33.6400003,4.5099998,34.0350003Q4.73,34.4300003,4.835,34.9349999Q4.9400001,35.4400001,4.9699998,36.0100002Q5.02,36.6400003,5.0549998,37.1350002Q5.0899997,37.630000100000004,5.1300001,38.0650005Q5.1700001,38.5,5.23,38.920000099999996Q5.29,39.34,5.3899999,39.81L4.0799999,40ZM6.7013283,37.1582031Q6.7013283,36.3427734,6.8331642,35.5395508Q6.9650002,34.7363281,7.2652931,34.0014648Q7.5655861,33.2666016,8.0685158,32.6611328L9.6603127,32.6611328Q8.9864845,33.5986328,8.6837502,34.7827148Q8.3810158,35.9667969,8.3810158,37.1484375Q8.3810158,37.924804699999996,8.5128517,38.7133789Q8.6446877,39.501953,8.9254494,40.236816Q9.2062111,40.97168,9.650547,41.582031L8.0685158,41.582031Q7.5655861,40.996094,7.2652931,40.273438Q6.9650002,39.550781,6.8331642,38.7573242Q6.7013283,37.963867199999996,6.7013283,37.1582031ZM12.23168,37.5109377Q12.693398,37.5109377,13.062304,37.7326565Q13.431367,37.9543753,13.653086,38.3278122Q13.874804,38.701250099999996,13.874804,39.154531Q13.874804,39.604687999999996,13.653086,39.979844Q13.431367,40.354844,13.061523,40.576563Q12.691835,40.798282,12.229492,40.798282Q11.778867,40.798282,11.404804,40.576563Q11.030898,40.354844,10.809179,39.979844Q10.587617,39.604687999999996,10.587617,39.154531Q10.587617,38.701250099999996,10.809179,38.3278122Q11.030898,37.9543753,11.406054,37.7326565Q11.781367,37.5109377,12.23168,37.5109377ZM12.234648,40.017656Q12.594336,40.017656,12.844179,39.765156Q13.094179,39.512656,13.094179,39.152968Q13.094179,38.915781,12.979805,38.71875Q12.865429,38.521562599999996,12.668242,38.4065628Q12.471054,38.291563,12.232461,38.291563Q12.001211,38.291563,11.804023,38.4065628Q11.606992,38.521562599999996,11.487617,38.7182808Q11.368242,38.915,11.368242,39.154219Q11.368242,39.393437,11.487617,39.591094Q11.606992,39.78875,11.802148,39.903281Q11.997305,40.017656,12.234648,40.017656ZM16.090195,36.3476562Q16.090195,35.7128906,16.302597,35.3271484Q16.514999,34.9414062,16.876328,34.765625Q17.237656,34.5898438,17.686874,34.5898438Q18.13121,34.5898438,18.492538,34.765625Q18.853867,34.9414062,19.071152,35.3271484Q19.288437,35.7128906,19.288437,36.3476562Q19.288437,36.9726562,19.071152,37.3608398Q18.853867,37.7490234,18.492538,37.9296875Q18.13121,38.1103516,17.686874,38.1103516Q17.237656,38.1103516,16.876328,37.9296875Q16.514999,37.7490234,16.302597,37.3608398Q16.090195,36.9726562,16.090195,36.3476562ZM19.13707,32.3388672L19.13707,32.4414062Q18.961288,32.5830078,18.687851,32.785644500000004Q18.414413,32.9882812,18.109238,33.2055664Q17.804062,33.4228516,17.518417,33.6181641Q17.232773,33.8134766,17.027695,33.9404297L15.758163,33.9404297L15.758163,33.7988281Q15.929062,33.6132812,16.16832,33.3569336Q16.407578,33.1005859,16.646835,32.8320312Q16.886093,32.5634766,17.047226,32.3388672L19.13707,32.3388672ZM24.373606,42.403399Q23.376457,42.403399,22.595207,42.238991999999996Q21.813957,42.074585,21.237232,41.783725000000004Q20.660561,41.49292,20.271378,41.110785L20.879288,40.568182Q21.389265,40.823864,22.271334,41.038319Q23.153458,41.25283,24.373606,41.25283Q25.19747,41.25283,25.883171,41.146296Q26.56893,41.039761999999996,27.094109,40.882069Q27.619345,40.724432,27.956038,40.568182L28.490095,41.110785Q28.18331,41.470171,27.596262,41.762751Q27.00927,42.055386999999996,26.192842,42.229392000000004Q25.376469,42.403399,24.373606,42.403399ZM29.458109,36.3476562Q29.458109,35.7128906,29.670511,35.3271484Q29.882914,34.9414062,30.244242,34.765625Q30.60557,34.5898438,31.054789,34.5898438Q31.499125,34.5898438,31.860453,34.765625Q32.221781,34.9414062,32.439066,35.3271484Q32.656349,35.7128906,32.656349,36.3476562Q32.656349,36.9726562,32.439066,37.3608398Q32.221781,37.7490234,31.860453,37.9296875Q31.499125,38.1103516,31.054789,38.1103516Q30.60557,38.1103516,30.244242,37.9296875Q29.882914,37.7490234,29.670511,37.3608398Q29.458109,36.9726562,29.458109,36.3476562ZM29.526468,32.3388672Q29.697367,32.5634766,29.934183,32.8320312Q30.171,33.1005859,30.407816,33.3569336Q30.644632,33.6132812,30.805765,33.7988281L30.805765,33.9404297L29.536234,33.9404297Q29.331156,33.8134766,29.047953,33.6181641Q28.76475,33.4228516,28.457132,33.2055664Q28.149515,32.9882812,27.878519,32.785644500000004Q27.607523,32.5830078,27.426859,32.4414062L27.426859,32.3388672L29.526468,32.3388672ZM35.320492,37.5109377Q35.782211,37.5109377,36.151115,37.7326565Q36.52018,37.9543753,36.741898,38.3278122Q36.963615,38.701250099999996,36.963615,39.154531Q36.963615,39.604687999999996,36.741898,39.979844Q36.52018,40.354844,36.150333,40.576563Q35.780647,40.798282,35.318302,40.798282Q34.86768,40.798282,34.493618,40.576563Q34.119709,40.354844,33.897991,39.979844Q33.67643,39.604687999999996,33.67643,39.154531Q33.67643,38.701250099999996,33.897991,38.3278122Q34.119709,37.9543753,34.494865,37.7326565Q34.870178,37.5109377,35.320492,37.5109377ZM35.32346,40.017656Q35.683147,40.017656,35.932991,39.765156Q36.182991,39.512656,36.182991,39.152968Q36.182991,38.915781,36.068615,38.71875Q35.954243,38.521562599999996,35.757053,38.4065628Q35.559868,38.291563,35.321274,38.291563Q35.090023,38.291563,34.892834,38.4065628Q34.695805,38.521562599999996,34.576427,38.7182808Q34.457054,38.915,34.457054,39.154219Q34.457054,39.393437,34.576427,39.591094Q34.695805,39.78875,34.890961,39.903281Q35.086117,40.017656,35.32346,40.017656ZM42.050102,37.1582031Q42.050102,37.963867199999996,41.918266,38.7573242Q41.78643,39.550781,41.486137,40.273438Q41.185844,40.996094,40.678032,41.582031L39.096001,41.582031Q39.545219,40.97168,39.82354,40.236816Q40.10186,39.501953,40.233696,38.7133789Q40.365532,37.924804699999996,40.365532,37.1484375Q40.365532,36.3574219,40.233696,35.5639648Q40.10186,34.7705078,39.821098,34.0283203Q39.540337,33.2861328,39.086235,32.6611328L40.678032,32.6611328Q41.185844,33.2666016,41.486137,34.0014648Q41.78643,34.7363281,41.918266,35.5395508Q42.050102,36.3427734,42.050102,37.1582031ZM44.266548,40.28L42.896549,39.62Q43.336548,38.6800003,43.891548,37.9449997Q44.446548,37.21,45.126549,36.644999999999996Q45.806549,36.0799999,46.626549,35.6600003L47.296547,36.8000002Q46.75655,37.119999899999996,46.296551,37.5299997Q45.836548,37.9400005,45.461548,38.3999996Q45.086548,38.8599997,44.786549,39.34Q44.486549,39.82,44.266548,40.28ZM44.82655,37.2200003Q44.486549,37.079999900000004,44.18655,36.8900003Q43.886551,36.6999998,43.661549,36.4400001Q43.43655,36.1800003,43.31155,35.8600001Q43.18655,35.54,43.18655,35.1500001Q43.18655,34.6100001,43.446548,34.165Q43.706551,33.7200003,44.191547,33.46Q44.676548,33.2000003,45.36655,33.2000003Q45.68655,33.2000003,45.941547,33.2450004Q46.196548,33.29,46.41655,33.3700004L46.196548,34.6400003Q46.00655,34.5799999,45.816547,34.5500002Q45.626549,34.519999999999996,45.456551,34.519999999999996Q45.126549,34.519999999999996,44.941547,34.6350002Q44.75655,34.75,44.676548,34.915Q44.59655,35.0799999,44.59655,35.230000000000004Q44.59655,35.4700003,44.75655,35.6700001Q44.91655,35.869999899999996,45.16655,36.0150003Q45.41655,36.1599998,45.691547,36.2399998Q45.966549,36.3200002,46.206551,36.3200002L44.82655,37.2200003Z" fill="url(#master_svg2_4_30587)" fill-opacity="1"/></g></g></svg>